<?xml version="1.0" encoding="utf-8"?>
<!-- Generator: Adobe Illustrator 26.3.1, SVG Export Plug-In . SVG Version: 6.00 Build 0)  -->
<svg version="1.1" id="Layer_1" xmlns="http://www.w3.org/2000/svg" xmlns:xlink="http://www.w3.org/1999/xlink" x="0px" y="0px"
	 viewBox="0 0 97 40" style="enable-background:new 0 0 97 40;" xml:space="preserve">
<style type="text/css">
	.st0{enable-background:new    ;}
	.st1{fill:#212529;}
</style>
<g class="st0">
	<path class="st1" d="M10.1,10.4l-1.7,0.2v9.8c0,1.5,0,2.7-0.1,3.8s-0.2,2-0.4,2.7c-0.3,0.9-0.8,1.7-1.4,2.4C5.8,30,5,30.5,4.1,30.9
		s-1.7,0.6-2.6,0.7l-0.7-1c1.8-0.7,3-1.6,3.6-3c0.2-0.7,0.4-1.4,0.5-2.2C5,24.6,5,23.6,5,22.3V10.6l-1.8-0.2V8.8h6.9V10.4z"/>
	<path class="st1" d="M21.6,14.6c0.9,0.7,1.3,1.9,1.3,3.5l0,7.5h1.5v1.1c-0.3,0.2-0.7,0.3-1.2,0.5c-0.5,0.1-1,0.2-1.4,0.2
		c-1.2,0-1.8-0.5-1.8-1.4c-0.9,0.9-2.1,1.4-3.6,1.4c-1.3,0-2.3-0.3-3.1-1c-0.8-0.7-1.2-1.6-1.2-2.6c0-1.1,0.4-1.9,1.1-2.6
		c0.8-0.7,1.7-1.2,2.9-1.5c1.2-0.3,2.3-0.5,3.6-0.5v-0.6c0-1.1-0.2-1.8-0.7-2.2s-1.2-0.6-2.1-0.6c-0.6,0-1.2,0.1-1.8,0.3
		c-0.7,0.2-1.2,0.4-1.7,0.7L12.5,15c0.5-0.4,1.3-0.8,2.4-1s2-0.4,2.9-0.4C19.5,13.6,20.7,13.9,21.6,14.6z M16.6,21.2
		c-0.8,0.4-1.3,1.1-1.3,2c0,1.5,0.8,2.2,2.3,2.2c0.3,0,0.7-0.1,1-0.2c0.4-0.1,0.6-0.3,0.9-0.5l0-4.1C18.4,20.5,17.4,20.8,16.6,21.2z
		"/>
	<path class="st1" d="M27.6,25.4v-8.4L26,15.9v-1.2l3.8-1.2l0.7,0.2v2.1c0.2-0.6,0.7-1.1,1.5-1.6c0.8-0.5,1.5-0.7,2.1-0.7
		c0.6,0,1,0,1.2,0.1v3.2c-0.2-0.1-0.6-0.3-0.9-0.4c-0.4-0.1-0.8-0.1-1.2-0.1c-0.9,0-1.7,0.2-2.3,0.6v8.3l3,0.4V27h-8v-1.3L27.6,25.4
		z"/>
	<path class="st1" d="M46.8,14.5c0.3-0.6,1.1-0.9,2.2-0.9h1.2V16h-2.3c0.2,0.5,0.3,1,0.3,1.7c0,1.5-0.5,2.7-1.6,3.5
		c-1.1,0.8-2.4,1.2-4,1.2c-0.9,0-1.7-0.1-2.3-0.3c-0.1,0.2-0.1,0.5-0.1,0.7c0,0.2,0,0.4,0,0.4c0,0.9,0.5,1.3,1.5,1.3
		c0.6,0,1.5,0,2.9,0c1.9,0,3.2,0.3,4,1c0.8,0.6,1.1,1.6,1.1,2.8c0,1-0.3,1.8-0.9,2.6s-1.4,1.3-2.5,1.6s-2.3,0.6-3.6,0.6
		c-1.7,0-3.1-0.3-4.2-0.8C37.5,31.9,37,31,37,29.7c0-0.7,0.2-1.3,0.6-1.8c0.4-0.6,0.8-1,1.4-1.3c-0.6-0.2-0.9-0.5-1.1-0.8
		c-0.2-0.3-0.2-0.8-0.2-1.3c0-0.4,0.2-0.8,0.5-1.3c0.3-0.5,0.7-1,1.1-1.3c-1.4-0.8-2.1-2-2.1-3.6c0-1,0.3-1.9,0.8-2.6
		c0.6-0.7,1.3-1.2,2.2-1.6s1.9-0.5,3-0.5C44.6,13.5,45.9,13.8,46.8,14.5z M39.9,28.7c0,0.9,0.3,1.6,0.9,2.1c0.6,0.5,1.4,0.7,2.5,0.7
		c1.2,0,2.1-0.2,2.7-0.5c0.6-0.4,0.9-0.9,0.9-1.8c0-0.6-0.1-1-0.3-1.4s-0.5-0.6-0.9-0.7c-0.4-0.2-1-0.2-1.8-0.2h-1.7
		c-0.8,0-1.4,0-1.8-0.1C40.1,27.3,39.9,28,39.9,28.7z M41,15.6c-0.4,0.4-0.6,1-0.6,1.9c0,1,0.2,1.9,0.6,2.5c0.4,0.6,1,0.9,1.9,0.9
		c0.8,0,1.3-0.2,1.7-0.7c0.3-0.5,0.5-1.2,0.5-2.1c0-2-0.8-3-2.5-3C41.9,15,41.4,15.2,41,15.6z"/>
	<path class="st1" d="M62.8,15.3c1.1,1.2,1.6,2.8,1.6,4.9c0,1.4-0.3,2.7-0.9,3.7s-1.4,1.9-2.4,2.5s-2.1,0.9-3.4,0.9
		c-2.1,0-3.7-0.6-4.8-1.9s-1.6-2.9-1.6-5c0-1.4,0.3-2.6,0.9-3.7c0.6-1,1.4-1.8,2.4-2.4c1-0.6,2.2-0.9,3.4-0.9
		C60.1,13.5,61.7,14.1,62.8,15.3z M55.6,16.4c-0.5,0.9-0.7,2.1-0.7,3.7c0,1.5,0.3,2.8,0.8,4s1.3,1.7,2.2,1.7c1.1,0,1.8-0.5,2.3-1.4
		c0.4-0.9,0.6-2.3,0.6-3.9c0-1.6-0.2-2.8-0.7-3.8c-0.5-1-1.2-1.5-2.2-1.5C56.8,15,56.1,15.5,55.6,16.4z"/>
	<path class="st1" d="M68.3,25.4v-8.4l-1.6-1.1v-1.2l3.8-1.2l0.7,0.2v1.7c0.6-0.6,1.3-1,2.3-1.4s1.8-0.5,2.6-0.5
		c1.4,0,2.3,0.4,2.9,1.3c0.6,0.9,0.8,2.2,0.8,4.1v6.4l1.7,0.3V27h-6.8v-1.3l1.7-0.3v-5.9c0-0.9-0.1-1.6-0.2-2.1
		c-0.1-0.5-0.3-0.9-0.7-1.1s-0.8-0.4-1.5-0.4c-0.4,0-0.8,0.1-1.2,0.2c-0.5,0.1-0.9,0.4-1.2,0.6v8.6l1.5,0.3V27h-6.4v-1.3L68.3,25.4z
		"/>
	<path class="st1" d="M85.3,30.6c0.7,0,1.4-0.3,1.9-0.9c0.6-0.6,1-1.5,1.3-2.7h-0.6l-4.6-11l-1.1-0.3v-1.7h6.2v1.7L87,15.9l2.4,7
		l0.4,1.7l0.5-1.7l2.1-7l-1.7-0.2v-1.7h5.6v1.7l-1.2,0.2c-0.7,2-1.6,4.3-2.6,7.1c-1.1,2.8-1.7,4.3-1.8,4.6c-0.5,1.3-1,2.4-1.5,3.1
		c-0.5,0.8-1.1,1.3-1.7,1.7c-0.6,0.5-1.3,0.8-2.1,0.8c-0.3,0-0.5,0-0.8,0c-0.3,0-0.5-0.1-0.6-0.1l0-2.6
		C84.4,30.5,84.9,30.6,85.3,30.6z"/>
</g>
</svg>
